# xmcd
#
# Track frame offsets:
#	150
#	23742
#	43017
#	62535
#	79070
#	98757
#	116857
#	134845
#	154175
#	168472
#	188980
#
# Disc length: 2713 seconds
#
# Revision: 0
# Processed by: cddbd v1.5.1PL0 Copyright (c) Steve Scherf et al.
# Submitted via: audiograbber 1.82.02
#
DISCID=940a970b
DTITLE=Pentangle - Think Of Tomorrow
DYEAR=1991
DGENRE=Folk-Rock
TTITLE0=O'er The Lonely Mountain 
TTITLE1=Baby, Now It's Over
TTITLE2=Share A Dream
TTITLE3=The Storyteller (Paddy's Song)
TTITLE4=Meat On The Bone
TTITLE5=Ever Yes, Ever No
TTITLE6=Straight Ahead
TTITLE7=The Toss Of Golden Hair
TTITLE8=The Lark In The Clear Air
TTITLE9=The Bonny Boy
TTITLE10=Colour My Paintbook
EXTD=corrected
EXTT0=
EXTT1=
EXTT2=
EXTT3=
EXTT4=
EXTT5=
EXTT6=
EXTT7=
EXTT8=
EXTT9=
EXTT10=
PLAYORDER=
